<svg width="36" height="36" viewBox="0 0 36 36" fill="none" xmlns="http://www.w3.org/2000/svg">
<path d="M1 25.0741V10.2593C1 7.80355 1.97553 5.44842 3.71197 3.71197C5.44842 1.97553 7.80355 1 10.2593 1H25.0741C27.5298 1 29.8849 1.97553 31.6214 3.71197C33.3578 5.44842 34.3333 7.80355 34.3333 10.2593V25.0741C34.3333 27.5298 33.3578 29.8849 31.6214 31.6214C29.8849 33.3578 27.5298 34.3333 25.0741 34.3333H10.2593C7.80355 34.3333 5.44842 33.3578 3.71197 31.6214C1.97553 29.8849 1 27.5298 1 25.0741Z" stroke="#7D944D" stroke-width="1.83655"/>
<path d="M26 22.2963C26 22.2963 23.2223 26 17.6667 26C12.1112 26 9.33337 22.2963 9.33337 22.2963" stroke="#7D944D" stroke-width="2.57117" stroke-linecap="round" stroke-linejoin="round"/>
<path d="M11.1852 13.9629C10.9396 13.9629 10.7041 13.8654 10.5305 13.6917C10.3568 13.5181 10.2593 13.2826 10.2593 13.037C10.2593 12.7914 10.3568 12.5559 10.5305 12.3823C10.7041 12.2086 10.9396 12.1111 11.1852 12.1111C11.4308 12.1111 11.6663 12.2086 11.8399 12.3823C12.0136 12.5559 12.1111 12.7914 12.1111 13.037C12.1111 13.2826 12.0136 13.5181 11.8399 13.6917C11.6663 13.8654 11.4308 13.9629 11.1852 13.9629ZM24.1482 13.9629C23.9026 13.9629 23.6671 13.8654 23.4934 13.6917C23.3198 13.5181 23.2222 13.2826 23.2222 13.037C23.2222 12.7914 23.3198 12.5559 23.4934 12.3823C23.6671 12.2086 23.9026 12.1111 24.1482 12.1111C24.3937 12.1111 24.6292 12.2086 24.8029 12.3823C24.9765 12.5559 25.0741 12.7914 25.0741 13.037C25.0741 13.2826 24.9765 13.5181 24.8029 13.6917C24.6292 13.8654 24.3937 13.9629 24.1482 13.9629Z" fill="#7D944D" stroke="#7D944D" stroke-width="0.550964" stroke-linecap="round" stroke-linejoin="round"/>
</svg>
